<mxfile host="app.diagrams.net" modified="2022-03-29T02:23:41.222Z" agent="5.0 (Windows NT 10.0; Win64; x64) AppleWebKit/537.36 (KHTML, like Gecko) Chrome/99.0.4844.74 Safari/537.36 Edg/99.0.1150.55" etag="-HhMZNX4Hs0ECByRBxGG" version="17.2.4" type="github">
  <diagram id="C5RBs43oDa-KdzZeNtuy" name="Page-1">
    <mxGraphModel dx="915" dy="574" grid="1" gridSize="10" guides="1" tooltips="1" connect="1" arrows="1" fold="1" page="1" pageScale="1" pageWidth="827" pageHeight="1169" math="0" shadow="0">
      <root>
        <mxCell id="WIyWlLk6GJQsqaUBKTNV-0" />
        <mxCell id="WIyWlLk6GJQsqaUBKTNV-1" parent="WIyWlLk6GJQsqaUBKTNV-0" />
        <mxCell id="WIyWlLk6GJQsqaUBKTNV-2" value="告知" style="rounded=0;html=1;jettySize=auto;orthogonalLoop=1;fontSize=11;endArrow=block;endFill=0;endSize=8;strokeWidth=1;shadow=0;labelBackgroundColor=none;edgeStyle=orthogonalEdgeStyle;align=left;" parent="WIyWlLk6GJQsqaUBKTNV-1" source="WIyWlLk6GJQsqaUBKTNV-3" edge="1">
          <mxGeometry x="-0.1105" y="-10" relative="1" as="geometry">
            <mxPoint x="189.97" y="80" as="targetPoint" />
            <mxPoint as="offset" />
          </mxGeometry>
        </mxCell>
        <mxCell id="GGXpx22eZjB3CcogfM1d-10" value="告知" style="edgeStyle=orthogonalEdgeStyle;rounded=0;orthogonalLoop=1;jettySize=auto;html=1;exitX=1;exitY=0.5;exitDx=0;exitDy=0;entryX=0.5;entryY=0;entryDx=0;entryDy=0;" parent="WIyWlLk6GJQsqaUBKTNV-1" source="WIyWlLk6GJQsqaUBKTNV-3" target="GGXpx22eZjB3CcogfM1d-4" edge="1">
          <mxGeometry x="-0.2728" y="10" relative="1" as="geometry">
            <mxPoint as="offset" />
          </mxGeometry>
        </mxCell>
        <mxCell id="WIyWlLk6GJQsqaUBKTNV-3" value="需求人提出原型" style="rounded=1;whiteSpace=wrap;html=1;fontSize=12;glass=0;strokeWidth=1;shadow=0;" parent="WIyWlLk6GJQsqaUBKTNV-1" vertex="1">
          <mxGeometry x="239.97" y="20" width="120" height="40" as="geometry" />
        </mxCell>
        <mxCell id="GGXpx22eZjB3CcogfM1d-12" value="" style="edgeStyle=orthogonalEdgeStyle;rounded=0;orthogonalLoop=1;jettySize=auto;html=1;" parent="WIyWlLk6GJQsqaUBKTNV-1" source="GGXpx22eZjB3CcogfM1d-0" target="GGXpx22eZjB3CcogfM1d-11" edge="1">
          <mxGeometry relative="1" as="geometry" />
        </mxCell>
        <mxCell id="GGXpx22eZjB3CcogfM1d-0" value="后端同学" style="rounded=1;whiteSpace=wrap;html=1;" parent="WIyWlLk6GJQsqaUBKTNV-1" vertex="1">
          <mxGeometry x="129.97" y="80" width="120" height="40" as="geometry" />
        </mxCell>
        <mxCell id="GGXpx22eZjB3CcogfM1d-14" value="" style="edgeStyle=orthogonalEdgeStyle;rounded=0;orthogonalLoop=1;jettySize=auto;html=1;" parent="WIyWlLk6GJQsqaUBKTNV-1" source="GGXpx22eZjB3CcogfM1d-4" target="GGXpx22eZjB3CcogfM1d-13" edge="1">
          <mxGeometry relative="1" as="geometry" />
        </mxCell>
        <mxCell id="GGXpx22eZjB3CcogfM1d-4" value="前端同学" style="rounded=1;whiteSpace=wrap;html=1;" parent="WIyWlLk6GJQsqaUBKTNV-1" vertex="1">
          <mxGeometry x="369.97" y="80" width="120" height="40" as="geometry" />
        </mxCell>
        <mxCell id="GGXpx22eZjB3CcogfM1d-17" value="告知前端同学" style="edgeStyle=orthogonalEdgeStyle;rounded=0;orthogonalLoop=1;jettySize=auto;html=1;exitX=0.5;exitY=1;exitDx=0;exitDy=0;entryX=0.5;entryY=0;entryDx=0;entryDy=0;" parent="WIyWlLk6GJQsqaUBKTNV-1" source="GGXpx22eZjB3CcogfM1d-11" target="GGXpx22eZjB3CcogfM1d-15" edge="1">
          <mxGeometry x="0.0625" y="10" relative="1" as="geometry">
            <mxPoint as="offset" />
          </mxGeometry>
        </mxCell>
        <mxCell id="GGXpx22eZjB3CcogfM1d-11" value="设计输出接口信息" style="whiteSpace=wrap;html=1;rounded=1;" parent="WIyWlLk6GJQsqaUBKTNV-1" vertex="1">
          <mxGeometry x="129.97" y="150" width="120" height="40" as="geometry" />
        </mxCell>
        <mxCell id="GGXpx22eZjB3CcogfM1d-16" value="" style="edgeStyle=orthogonalEdgeStyle;rounded=0;orthogonalLoop=1;jettySize=auto;html=1;" parent="WIyWlLk6GJQsqaUBKTNV-1" source="GGXpx22eZjB3CcogfM1d-13" target="GGXpx22eZjB3CcogfM1d-15" edge="1">
          <mxGeometry relative="1" as="geometry" />
        </mxCell>
        <mxCell id="GGXpx22eZjB3CcogfM1d-13" value="制作页面" style="rounded=1;whiteSpace=wrap;html=1;" parent="WIyWlLk6GJQsqaUBKTNV-1" vertex="1">
          <mxGeometry x="369.97" y="150" width="120" height="40" as="geometry" />
        </mxCell>
        <mxCell id="GGXpx22eZjB3CcogfM1d-19" value="" style="edgeStyle=orthogonalEdgeStyle;rounded=0;orthogonalLoop=1;jettySize=auto;html=1;" parent="WIyWlLk6GJQsqaUBKTNV-1" source="GGXpx22eZjB3CcogfM1d-15" target="GGXpx22eZjB3CcogfM1d-18" edge="1">
          <mxGeometry relative="1" as="geometry" />
        </mxCell>
        <mxCell id="GGXpx22eZjB3CcogfM1d-15" value="根据接口信息调整页面字段" style="rounded=1;whiteSpace=wrap;html=1;" parent="WIyWlLk6GJQsqaUBKTNV-1" vertex="1">
          <mxGeometry x="369.97" y="260" width="120" height="40" as="geometry" />
        </mxCell>
        <mxCell id="GGXpx22eZjB3CcogfM1d-20" style="edgeStyle=orthogonalEdgeStyle;rounded=0;orthogonalLoop=1;jettySize=auto;html=1;exitX=0;exitY=0.5;exitDx=0;exitDy=0;entryX=0;entryY=0.5;entryDx=0;entryDy=0;" parent="WIyWlLk6GJQsqaUBKTNV-1" source="GGXpx22eZjB3CcogfM1d-18" target="GGXpx22eZjB3CcogfM1d-0" edge="1">
          <mxGeometry relative="1" as="geometry" />
        </mxCell>
        <mxCell id="FmmwbrcUFGugAvMDfb-N-6" value="" style="edgeStyle=orthogonalEdgeStyle;rounded=0;orthogonalLoop=1;jettySize=auto;html=1;" edge="1" parent="WIyWlLk6GJQsqaUBKTNV-1" source="GGXpx22eZjB3CcogfM1d-18" target="FmmwbrcUFGugAvMDfb-N-5">
          <mxGeometry relative="1" as="geometry" />
        </mxCell>
        <mxCell id="GGXpx22eZjB3CcogfM1d-18" value="前端测试并反馈接口问题" style="rounded=1;whiteSpace=wrap;html=1;" parent="WIyWlLk6GJQsqaUBKTNV-1" vertex="1">
          <mxGeometry x="369.97" y="340" width="120" height="40" as="geometry" />
        </mxCell>
        <mxCell id="GGXpx22eZjB3CcogfM1d-23" value="" style="edgeStyle=orthogonalEdgeStyle;rounded=0;orthogonalLoop=1;jettySize=auto;html=1;" parent="WIyWlLk6GJQsqaUBKTNV-1" source="GGXpx22eZjB3CcogfM1d-21" target="GGXpx22eZjB3CcogfM1d-22" edge="1">
          <mxGeometry relative="1" as="geometry" />
        </mxCell>
        <mxCell id="GGXpx22eZjB3CcogfM1d-21" value="需求提出原型" style="rounded=1;whiteSpace=wrap;html=1;" parent="WIyWlLk6GJQsqaUBKTNV-1" vertex="1">
          <mxGeometry x="29.97" y="690" width="120" height="60" as="geometry" />
        </mxCell>
        <mxCell id="GGXpx22eZjB3CcogfM1d-22" value="定义接口信息&lt;br&gt;ApiFox" style="ellipse;whiteSpace=wrap;html=1;rounded=1;" parent="WIyWlLk6GJQsqaUBKTNV-1" vertex="1">
          <mxGeometry x="189.97" y="690" width="120" height="60" as="geometry" />
        </mxCell>
        <mxCell id="FmmwbrcUFGugAvMDfb-N-0" style="edgeStyle=orthogonalEdgeStyle;rounded=0;orthogonalLoop=1;jettySize=auto;html=1;exitX=1;exitY=0.5;exitDx=0;exitDy=0;entryX=0;entryY=0.5;entryDx=0;entryDy=0;" edge="1" parent="WIyWlLk6GJQsqaUBKTNV-1" source="GGXpx22eZjB3CcogfM1d-24" target="GGXpx22eZjB3CcogfM1d-30">
          <mxGeometry relative="1" as="geometry" />
        </mxCell>
        <mxCell id="GGXpx22eZjB3CcogfM1d-24" value="前端同学" style="rounded=0;whiteSpace=wrap;html=1;" parent="WIyWlLk6GJQsqaUBKTNV-1" vertex="1">
          <mxGeometry x="189.97" y="615" width="120" height="30" as="geometry" />
        </mxCell>
        <mxCell id="FmmwbrcUFGugAvMDfb-N-1" style="edgeStyle=orthogonalEdgeStyle;rounded=0;orthogonalLoop=1;jettySize=auto;html=1;exitX=1;exitY=0.5;exitDx=0;exitDy=0;entryX=0;entryY=0.5;entryDx=0;entryDy=0;" edge="1" parent="WIyWlLk6GJQsqaUBKTNV-1" source="GGXpx22eZjB3CcogfM1d-25" target="GGXpx22eZjB3CcogfM1d-32">
          <mxGeometry relative="1" as="geometry" />
        </mxCell>
        <mxCell id="GGXpx22eZjB3CcogfM1d-25" value="后端同学" style="rounded=0;whiteSpace=wrap;html=1;" parent="WIyWlLk6GJQsqaUBKTNV-1" vertex="1">
          <mxGeometry x="189.97" y="795" width="120" height="30" as="geometry" />
        </mxCell>
        <mxCell id="GGXpx22eZjB3CcogfM1d-30" value="根据接口mock数据&lt;br&gt;制作页面并测试交付" style="whiteSpace=wrap;html=1;rounded=1;" parent="WIyWlLk6GJQsqaUBKTNV-1" vertex="1">
          <mxGeometry x="449.97" y="600" width="120" height="60" as="geometry" />
        </mxCell>
        <mxCell id="GGXpx22eZjB3CcogfM1d-32" value="根据接口开发调试&lt;br&gt;编写实体类业务逻辑并交付" style="whiteSpace=wrap;html=1;rounded=1;" parent="WIyWlLk6GJQsqaUBKTNV-1" vertex="1">
          <mxGeometry x="449.97" y="780" width="120" height="60" as="geometry" />
        </mxCell>
        <mxCell id="FmmwbrcUFGugAvMDfb-N-2" value="参与编辑" style="endArrow=classic;startArrow=classic;html=1;rounded=0;entryX=0.5;entryY=1;entryDx=0;entryDy=0;align=left;" edge="1" parent="WIyWlLk6GJQsqaUBKTNV-1" source="GGXpx22eZjB3CcogfM1d-22" target="GGXpx22eZjB3CcogfM1d-24">
          <mxGeometry width="50" height="50" relative="1" as="geometry">
            <mxPoint x="429.97" y="755" as="sourcePoint" />
            <mxPoint x="479.97" y="705" as="targetPoint" />
          </mxGeometry>
        </mxCell>
        <mxCell id="FmmwbrcUFGugAvMDfb-N-3" value="参与编辑" style="endArrow=classic;startArrow=classic;html=1;rounded=0;exitX=0.5;exitY=0;exitDx=0;exitDy=0;entryX=0.5;entryY=1;entryDx=0;entryDy=0;align=left;" edge="1" parent="WIyWlLk6GJQsqaUBKTNV-1" source="GGXpx22eZjB3CcogfM1d-25" target="GGXpx22eZjB3CcogfM1d-22">
          <mxGeometry width="50" height="50" relative="1" as="geometry">
            <mxPoint x="429.97" y="755" as="sourcePoint" />
            <mxPoint x="259.97" y="755" as="targetPoint" />
          </mxGeometry>
        </mxCell>
        <mxCell id="FmmwbrcUFGugAvMDfb-N-5" value="交付" style="rounded=1;whiteSpace=wrap;html=1;" vertex="1" parent="WIyWlLk6GJQsqaUBKTNV-1">
          <mxGeometry x="369.97" y="400" width="120" height="30" as="geometry" />
        </mxCell>
      </root>
    </mxGraphModel>
  </diagram>
</mxfile>
